<?xml version="1.0" encoding="utf-8"?><svg viewBox="0 0 502.66 502.66" xmlns="http://www.w3.org/2000/svg" xmlns:xlink="http://www.w3.org/1999/xlink"><style>:root>svg{display:none}:root>svg:target{display:block}</style><svg viewBox="0 0 141 141" id="arrow" xmlns="http://www.w3.org/2000/svg"><path d="M50.853 30.25a.923.923 0 01.04-1.829 42.64 42.64 0 011.879-.165.923.923 0 01.12 1.841c-.599.04-1.198.093-1.798.16a1.02 1.02 0 01-.241-.008z"/><path d="M51.91 29.237a.918.918 0 01.858-.976.933.933 0 01.989.86.933.933 0 01-.859.976c-.075.001-.138.004-.21-.007a.93.93 0 01-.778-.853zm-2.802 82.703a42.813 42.813 0 01-2.793-.527.91.91 0 01-.71-1.054l.008-.049a.925.925 0 011.102-.702c1.179.268 2.367.474 3.562.632l.036.006a.933.933 0 01.776 1.027.924.924 0 01-1.042.799 22.488 22.488 0 01-.939-.132zm4.623.447a.92.92 0 01-.775-.953.274.274 0 01.003-.099.92.92 0 01.942-.789c1.224.051 2.445.038 3.624-.018 0 0 .012.002.014-.01a.943.943 0 01.972.883c.003.063-.007.123-.016.184a.91.91 0 01-.865.776 38.265 38.265 0 01-3.788.03c-.036-.005-.074.001-.11-.004zm-10.94-1.936a.606.606 0 01-.144-.034l-.036-.006c-.01-.014-.023-.016-.035-.018a.92.92 0 01-.54-.456.965.965 0 01-.054-.705.92.92 0 011.161-.593l.037.005c.01.014.022.016.034.018l.013.002a.91.91 0 01.604 1.013l-.023.146a.925.925 0 01-1.017.628zm18.353 1.552a.922.922 0 01-.777-.778.934.934 0 01.795-1.048 40.447 40.447 0 003.56-.663c.49-.111 1.002.204 1.116.681.03.129.023.253.005.374a.907.907 0 01-.698.74c-1.226.285-2.48.516-3.728.698a.93.93 0 01-.273-.004zm7.227-1.694a.912.912 0 01-.738-.623.848.848 0 01-.038-.404.907.907 0 01.625-.75 44.26 44.26 0 003.397-1.297.926.926 0 011.21.471c.062.159.086.324.073.496a.926.926 0 01-.545.713c-1.148.509-2.35.96-3.556 1.36a.795.795 0 01-.428.034zm6.812-2.964a.899.899 0 01-.675-.464.883.883 0 01-.099-.575.881.881 0 01.464-.676 41.328 41.328 0 003.102-1.889c.403-.275 1.007-.157 1.28.258a.864.864 0 01.15.645.933.933 0 01-.395.624 40.286 40.286 0 01-3.252 1.978.903.903 0 01-.575.099zm6.146-4.136a.907.907 0 01-.571-.337.896.896 0 01.135-1.286 40.421 40.421 0 002.696-2.412l.014-.01a.946.946 0 011.304.013.95.95 0 01.251.798.876.876 0 01-.264.507 39.401 39.401 0 01-2.838 2.527.906.906 0 01-.727.2zm5.322-5.184a.875.875 0 01-.466-.208.928.928 0 01-.1-1.297 40.23 40.23 0 002.243-2.867c.286-.404.873-.5 1.29-.213a.92.92 0 01.372.903.9.9 0 01-.16.386 47.776 47.776 0 01-2.335 2.99.928.928 0 01-.844.306zm4.308-6.035a.824.824 0 01-.329-.125.906.906 0 01-.445-.914.873.873 0 01.115-.343 37.648 37.648 0 001.686-3.214.956.956 0 011.238-.445.91.91 0 01.512.962c-.013.085-.04.18-.077.262a41.282 41.282 0 01-1.771 3.362.904.904 0 01-.929.455zm3.157-6.721c-.061-.01-.12-.031-.179-.052a.91.91 0 01-.594-1 .93.93 0 01.04-.18c.408-1.12.775-2.296 1.09-3.467a.906.906 0 011.12-.65.92.92 0 01.69 1.027c-.006.036-.023.07-.027.095a39.504 39.504 0 01-1.14 3.621.931.931 0 01-1 .606zm1.894-7.176a.927.927 0 01-.768-1.076l.093-.608c.152-.997.268-2 .346-2.995l.015-.098a.918.918 0 01.973-.747.904.904 0 01.846.976c.012.002.01.014.01.014l-.009.06a42.84 42.84 0 01-.358 3.07l-.096.632a.93.93 0 01-1.052.772zm.561-7.405a.922.922 0 01-.77-.902 44.581 44.581 0 00-.216-3.63.719.719 0 01.01-.234.896.896 0 01.816-.771.92.92 0 011.007.814 40.8 40.8 0 01.216 3.79.52.52 0 01-.008.136.909.909 0 01-.895.809c-.049-.008-.111-.005-.16-.012zm-.761-7.384a.925.925 0 01-.758-.738 38.411 38.411 0 00-.854-3.527.963.963 0 01-.024-.415.908.908 0 01.647-.734.942.942 0 011.148.636c.35 1.21.657 2.452.892 3.683a.963.963 0 010 .323.919.919 0 01-.726.76.925.925 0 01-.325.012zm-2.057-7.133a.914.914 0 01-.721-.57 43.21 43.21 0 00-1.47-3.324.869.869 0 01-.092-.537.9.9 0 01.492-.696c.444-.218 1.025-.03 1.243.414a42.56 42.56 0 011.547 3.472.9.9 0 01.049.493.928.928 0 01-.58.695.843.843 0 01-.468.053zm-3.314-6.642a.944.944 0 01-.656-.424 35.575 35.575 0 00-2.044-2.988.99.99 0 01-.181-.687.973.973 0 01.368-.616.952.952 0 011.29.185 42.378 42.378 0 012.133 3.139.85.85 0 01.131.605.91.91 0 01-.425.669.936.936 0 01-.616.117zm-4.469-5.922a.903.903 0 01-.54-.294 41.345 41.345 0 00-2.542-2.58l-.012-.001a.93.93 0 01-.284-.828.821.821 0 01.235-.474c.329-.36.943-.39 1.303-.062a45.54 45.54 0 012.671 2.711c.18.202.263.476.222.743a.91.91 0 01-.295.552.892.892 0 01-.758.233zm-5.45-5.04a.921.921 0 01-.42-.189 40.1 40.1 0 00-2.977-2.086.907.907 0 01-.405-.933.925.925 0 01.127-.34c.261-.409.854-.542 1.274-.279a41.51 41.51 0 013.1 2.18c.28.204.403.546.352.874a.91.91 0 01-.176.422.932.932 0 01-.875.35zm-6.258-3.994a1.208 1.208 0 01-.286-.081 36.777 36.777 0 00-3.3-1.525.92.92 0 01-.56-.982.796.796 0 01.06-.227c.182-.458.727-.685 1.197-.501a45.91 45.91 0 013.453 1.586.927.927 0 01.484.982.663.663 0 01-.09.26.912.912 0 01-.958.488zm-6.876-2.794c-.049-.008-.085-.013-.132-.033a39.116 39.116 0 00-3.52-.9.929.929 0 01-.724-1.044l.007-.048a.938.938 0 011.093-.716c1.229.262 2.462.576 3.687.95a.913.913 0 01.608 1.15.926.926 0 01-1.02.64zm-10.978-1.767a.908.908 0 01-.777-.94.915.915 0 01.934-.903c1.252.03 2.52.125 3.791.27l.037.005c.486.074.83.513.778 1.015l-.008.049a.906.906 0 01-.999.755c-.002.012-.014.01-.014.01l-.036-.005-.024-.004a42.788 42.788 0 00-3.559-.246.433.433 0 01-.123-.006z"/><path d="M42.719 110.429a.819.819 0 01-.146-.034 43.362 43.362 0 01-1.78-.62.923.923 0 11.647-1.729c.562.21 1.13.408 1.702.594a.92.92 0 01.594 1.161.924.924 0 01-1.017.628zm13.223-75.173a.915.915 0 01-.386-.153l-6.923-4.805a.922.922 0 01-.134-1.402l5.743-5.893a.922.922 0 111.322 1.288l-4.983 5.113 6.028 4.184a.922.922 0 01-.667 1.668z"/></svg><svg viewBox="0 0 50 50" id="dot" xmlns="http://www.w3.org/2000/svg"><g filter="url(#ba)"><circle cx="25" cy="25" r="5"/></g><defs><filter id="ba" x="0" y="0" width="50" height="50" filterUnits="userSpaceOnUse" color-interpolation-filters="sRGB"><feFlood flood-opacity="0" result="BackgroundImageFix"/><feColorMatrix in="SourceAlpha" values="0 0 0 0 0 0 0 0 0 0 0 0 0 0 0 0 0 0 127 0" result="hardAlpha"/><feOffset/><feGaussianBlur stdDeviation="10"/><feComposite in2="hardAlpha" operator="out"/><feColorMatrix values="0 0 0 0 0.12625 0 0 0 0 0.799227 0 0 0 0 0.841667 0 0 0 0.5 0"/><feBlend in2="BackgroundImageFix" result="effect1_dropShadow_1_208"/><feBlend in="SourceGraphic" in2="effect1_dropShadow_1_208" result="shape"/></filter></defs></svg><svg viewBox="0 0 502.664 502.664" id="icon" xmlns="http://www.w3.org/2000/svg"><path d="M153.821 358.226L0 274.337v-46.463l153.821-83.414v54.574L46.636 250.523l107.185 53.431v54.272zm26.273 29.358L282.103 115.08h32.227L212.084 387.584h-31.99zm168.749-29.358v-54.272l107.164-52.999-107.164-52.59v-53.927l153.821 83.522v46.183l-153.821 84.083z"/></svg><svg viewBox="0 0 385 56" id="line01" xmlns="http://www.w3.org/2000/svg"><path d="M0 1h339c24.853 0 45 20.147 45 45v10"/></svg><svg viewBox="0 0 384 110" id="line02" xmlns="http://www.w3.org/2000/svg"><path d="M0 1h248.534c24.853 0 45 20.147 45 45v18c0 24.853 20.147 45 45 45H384"/></svg><svg viewBox="0 0 385 100" id="line03" xmlns="http://www.w3.org/2000/svg"><path d="M0 1h251.061c24.853 0 45 20.147 45 45v9.03c0 24.284 19.686 43.97 43.97 43.97C364.314 99 384 79.314 384 55.03V17"/></svg><svg viewBox="0 0 385 56" id="line04" xmlns="http://www.w3.org/2000/svg"><path d="M385 1H46C21.147 1 1 21.147 1 46v10"/></svg><svg viewBox="0 0 384 110" id="line05" xmlns="http://www.w3.org/2000/svg"><path d="M384 1H135.466c-24.853 0-45 20.147-45 45v18c0 24.853-20.147 45-45 45H0"/></svg><svg viewBox="0 0 199 51" id="logo" xmlns="http://www.w3.org/2000/svg"><g clip-path="url(#ia)"><path fill-rule="evenodd" clip-rule="evenodd" d="M.092 19.95h57.519V0L.092 19.95zm101.35 7.446v-4.254h18.001V33.78h-12.602v-4.254h9v-2.13h-14.399zm0 12.768V29.526h3.601v10.638h-3.601zM81.637 23.148v2.13l3.595 4.254 2.694-3.18-2.694-3.204h-3.595zm0 14.892v2.13h3.595l6.307-7.452 6.295 7.452h1.804v-4.254l-5.405-6.384 5.405-6.384h-5.405L81.63 38.046l.006-.006zM67.23 33.78h10.8v-4.254H67.231v4.254zm-5.399 6.39V23.148h18.001v4.254h-14.4v8.514h14.4v4.254h-18zm-42.027-6.312V23.22h12.602v4.254h-9v6.384h-3.602zm0 6.384v-4.26H34.21V23.214h3.595v17.028h-18zM0 40.248h3.601V29.61H0v10.638zm18.001-17.022V33.87h-5.399l5.4 6.384h-5.4L5.399 31.74v-2.13h9v-2.13H0v-4.254h18.001zm27.008-.006H57.61v4.254H45.009V23.22zm-5.405 0v10.638H54.01v2.13H39.604v4.254H57.61V29.604H43.205V23.22h-3.601zm85.238 16.944h-3.601V29.526h3.601v10.638zm14.4-6.384V23.142h-18.001v4.254h14.399v2.13h-9v2.13l7.203 8.514h5.399l-5.399-6.384h5.399v-.006zm7.209 0h10.798v-4.254h-10.798v4.254zm12.602 2.13v4.26h-18.001V23.142h18.001v4.254h-14.4v8.514h14.4zm19.805 4.254V29.526h-14.406v-6.384h-3.595V33.78h14.399v2.13h-14.399v4.254h18.001zm0-12.768v-4.254h-12.602v4.254h12.602zm19.805 2.13v10.638h-18.002V35.91h14.4v-2.13h-14.4V23.142h3.602v6.384h14.4zm0-6.384v4.254h-12.602v-4.254h12.602zm-.166-3.192H61.832V0l136.665 19.95zM57.611 51v-7.998H.454L57.611 51zm4.221-7.998H199L61.832 51v-7.998z"/></g><defs><linearGradient id="ib" x1=".075" y1="25.5" x2="199.011" y2="25.5" gradientUnits="userSpaceOnUse"><stop stop-color="#9F734C"/><stop offset=".13" stop-color="#BA945E"/><stop offset=".28" stop-color="#D1B16E"/><stop offset=".42" stop-color="#E2C579"/><stop offset=".56" stop-color="#ECD180"/><stop offset=".7" stop-color="#F0D683"/><stop offset=".75" stop-color="#E7CC7D"/><stop offset=".84" stop-color="#D2B16E"/><stop offset=".95" stop-color="#AF8757"/><stop offset="1" stop-color="#9F734C"/></linearGradient><clipPath id="ia"><path d="M0 0h199v51H0z"/></clipPath></defs></svg><svg viewBox="0 0 40 40" id="telegram" xmlns="http://www.w3.org/2000/svg"><path d="M31.881 0H8.12A8.119 8.119 0 000 8.119V31.88A8.119 8.119 0 008.119 40H31.88A8.119 8.119 0 0040 31.881V8.12A8.119 8.119 0 0031.881 0z"/><path d="M27.707 13.434l-.295.104-16.004 5.591a.536.536 0 00-.28.198.51.51 0 00.03.636.54.54 0 00.297.172l4.143 1.1.772 2.2.773 2.2a.714.714 0 00.207.278.743.743 0 00.67.145.743.743 0 00.31-.167l2.14-1.961 4.202 2.764c.514.339 1.246.087 1.378-.472l2.783-11.927c.136-.59-.505-1.076-1.126-.861zm-2.043 2.647l-7.231 5.732-.34.27a.354.354 0 00-.136.233l-.077.61-.209 1.712a.077.077 0 01-.019.058.083.083 0 01-.115.009.078.078 0 01-.028-.054l-.588-1.711-.607-1.752a.345.345 0 01.01-.24.36.36 0 01.165-.18l7.524-4.182 1.416-.786c.206-.116.416.137.235.281z"/><path d="M37.228 31.88V8.12a5.347 5.347 0 00-5.347-5.347H8.12A5.347 5.347 0 002.773 8.12v23.76a5.347 5.347 0 005.347 5.346h23.76a5.347 5.347 0 005.347-5.346z"/><defs><linearGradient id="jb" x1="11.028" y1="20.118" x2="28.847" y2="20.118" gradientUnits="userSpaceOnUse"><stop stop-color="#9F734C"/><stop offset=".13" stop-color="#BA945E"/><stop offset=".28" stop-color="#D1B16E"/><stop offset=".42" stop-color="#E2C579"/><stop offset=".56" stop-color="#ECD180"/><stop offset=".7" stop-color="#F0D683"/><stop offset=".75" stop-color="#E7CC7D"/><stop offset=".84" stop-color="#D2B16E"/><stop offset=".95" stop-color="#AF8757"/><stop offset="1" stop-color="#9F734C"/></linearGradient><linearGradient id="jc" x1="2.574" y1="20" x2="37.426" y2="20" gradientUnits="userSpaceOnUse"><stop stop-color="#9F734C"/><stop offset=".13" stop-color="#BA945E"/><stop offset=".28" stop-color="#D1B16E"/><stop offset=".42" stop-color="#E2C579"/><stop offset=".56" stop-color="#ECD180"/><stop offset=".7" stop-color="#F0D683"/><stop offset=".75" stop-color="#E7CC7D"/><stop offset=".84" stop-color="#D2B16E"/><stop offset=".95" stop-color="#AF8757"/><stop offset="1" stop-color="#9F734C"/></linearGradient><radialGradient id="ja" cx="0" cy="0" r="1" gradientUnits="userSpaceOnUse" gradientTransform="translate(4.158 3.366) scale(47.7505)"><stop stop-color="#3D3D3D"/><stop offset="1" stop-color="#141414"/></radialGradient></defs></svg><svg viewBox="0 0 40 40" id="vk" xmlns="http://www.w3.org/2000/svg"><path d="M31.881 0H8.12A8.119 8.119 0 000 8.119V31.88A8.119 8.119 0 008.119 40H31.88A8.119 8.119 0 0040 31.881V8.12A8.119 8.119 0 0031.881 0z"/><path d="M37.228 31.88V8.12a5.347 5.347 0 00-5.347-5.347H8.12A5.347 5.347 0 002.773 8.12v23.76a5.347 5.347 0 005.347 5.346h23.76a5.347 5.347 0 005.347-5.346z"/><path d="M9.988 14.89h3.616c.139 0 .265.084.325.21.832 1.807 1.841 3.442 3.061 4.884.103.17.357.15.436-.032.38-.926 1.085-3.18-.277-4.784a.281.281 0 01.099-.44c1.378-.574 2.728-.657 4.04-.07a.764.764 0 01.455.7L22.052 20c0 .206.19.372.392.329 1.512-.321 2.404-2.587 3.283-4.95a.739.739 0 01.693-.488h3.33c.274 0 .492.242.444.51-.313 1.68-2 3.854-2.883 4.9a.966.966 0 000 1.251l2.978 3.545a.39.39 0 01-.3.641h-3.771c-.309 0-.606-.13-.816-.356l-2.637-2.194c-.14-.15-.397-.202-.523-.047-.325.396-.301.887-.456 2-.047.348-.36.598-.713.598h-2.578c-.368 0-.729-.076-1.061-.234-1.478-.701-5.521-3.188-7.79-10.143a.364.364 0 01.344-.475v.004z"/><defs><linearGradient id="kb" x1="2.574" y1="20" x2="37.426" y2="20" gradientUnits="userSpaceOnUse"><stop stop-color="#9F734C"/><stop offset=".13" stop-color="#BA945E"/><stop offset=".28" stop-color="#D1B16E"/><stop offset=".42" stop-color="#E2C579"/><stop offset=".56" stop-color="#ECD180"/><stop offset=".7" stop-color="#F0D683"/><stop offset=".75" stop-color="#E7CC7D"/><stop offset=".84" stop-color="#D2B16E"/><stop offset=".95" stop-color="#AF8757"/><stop offset="1" stop-color="#9F734C"/></linearGradient><linearGradient id="kc" x1="9.624" y1="20" x2="30.376" y2="20" gradientUnits="userSpaceOnUse"><stop stop-color="#9F734C"/><stop offset=".13" stop-color="#BA945E"/><stop offset=".28" stop-color="#D1B16E"/><stop offset=".42" stop-color="#E2C579"/><stop offset=".56" stop-color="#ECD180"/><stop offset=".7" stop-color="#F0D683"/><stop offset=".75" stop-color="#E7CC7D"/><stop offset=".84" stop-color="#D2B16E"/><stop offset=".95" stop-color="#AF8757"/><stop offset="1" stop-color="#9F734C"/></linearGradient><radialGradient id="ka" cx="0" cy="0" r="1" gradientUnits="userSpaceOnUse" gradientTransform="translate(4.158 3.366) scale(47.7505)"><stop stop-color="#3D3D3D"/><stop offset="1" stop-color="#141414"/></radialGradient></defs></svg><svg viewBox="0 0 40 40" id="youtube" xmlns="http://www.w3.org/2000/svg"><path d="M31.881 0H8.12A8.119 8.119 0 000 8.119V31.88A8.119 8.119 0 008.119 40H31.88A8.119 8.119 0 0040 31.881V8.12A8.119 8.119 0 0031.881 0z"/><path d="M37.228 31.88V8.12a5.347 5.347 0 00-5.347-5.347H8.12A5.347 5.347 0 002.773 8.12v23.76a5.347 5.347 0 005.347 5.346h23.76a5.347 5.347 0 005.347-5.346z"/><path d="M28.907 14.954a1.642 1.642 0 00-1.497-1.457 100.695 100.695 0 00-14.828 0 1.647 1.647 0 00-1.497 1.457 42.58 42.58 0 000 10.091c.091.78.713 1.398 1.497 1.458 4.943.364 9.885.364 14.828 0a1.647 1.647 0 001.497-1.458c.4-3.362.4-6.728 0-10.09zm-5.988 4.986l-4.456 2.551a.246.246 0 01-.368-.214v-5.105c0-.186.202-.305.368-.214l4.456 2.55a.245.245 0 010 .425v.008z"/><defs><linearGradient id="lb" x1="2.574" y1="20" x2="37.426" y2="20" gradientUnits="userSpaceOnUse"><stop stop-color="#9F734C"/><stop offset=".13" stop-color="#BA945E"/><stop offset=".28" stop-color="#D1B16E"/><stop offset=".42" stop-color="#E2C579"/><stop offset=".56" stop-color="#ECD180"/><stop offset=".7" stop-color="#F0D683"/><stop offset=".75" stop-color="#E7CC7D"/><stop offset=".84" stop-color="#D2B16E"/><stop offset=".95" stop-color="#AF8757"/><stop offset="1" stop-color="#9F734C"/></linearGradient><linearGradient id="lc" x1="10.792" y1="20" x2="29.208" y2="20" gradientUnits="userSpaceOnUse"><stop stop-color="#9F734C"/><stop offset=".13" stop-color="#BA945E"/><stop offset=".28" stop-color="#D1B16E"/><stop offset=".42" stop-color="#E2C579"/><stop offset=".56" stop-color="#ECD180"/><stop offset=".7" stop-color="#F0D683"/><stop offset=".75" stop-color="#E7CC7D"/><stop offset=".84" stop-color="#D2B16E"/><stop offset=".95" stop-color="#AF8757"/><stop offset="1" stop-color="#9F734C"/></linearGradient><radialGradient id="la" cx="0" cy="0" r="1" gradientUnits="userSpaceOnUse" gradientTransform="translate(4.158 3.366) scale(47.7505)"><stop stop-color="#3D3D3D"/><stop offset="1" stop-color="#141414"/></radialGradient></defs></svg></svg>